<?xml version="1.0" encoding="UTF-8" standalone="no"?>
<!DOCTYPE svg PUBLIC "-//W3C//DTD SVG 1.1//EN" "http://www.w3.org/Graphics/SVG/1.1/DTD/svg11.dtd">
<!-- Created with Vectornator (http://vectornator.io/) -->
<svg height="100%" stroke-miterlimit="10" style="fill-rule:nonzero;clip-rule:evenodd;stroke-linecap:round;stroke-linejoin:round;" version="1.1" viewBox="0 0 1000 1000" width="100%" xml:space="preserve" xmlns="http://www.w3.org/2000/svg" xmlns:xlink="http://www.w3.org/1999/xlink">
<defs/>
<clipPath id="ArtboardFrame">
<rect height="1000" width="1000" x="0" y="0"/>
</clipPath>
<g clip-path="url(#ArtboardFrame)" id="Layer-1" visibility="hidden">
<path d="M-1.42109e-14 8.52651e-14L1000 8.52651e-14L1000 1000L-1.42109e-14 1000L-1.42109e-14 8.52651e-14Z" fill="#2d2d2d" fill-rule="nonzero" opacity="1" stroke="none"/>
</g>
<g id="Layer-2-copy-copy">
<path d="M502.234 38.4552C486.339 38.9004 474.982 48.4043 467.322 63.4683C462.629 72.699 459.55 82.7064 455.046 100.864C454.591 102.701 451.437 115.423 450.789 117.929C443.203 147.29 435.727 161.816 425.421 166.536C423.394 167.465 421.209 167.471 417.687 166.146C409.949 163.237 400.65 155.78 386.464 141.665C384.476 139.687 377.555 132.756 377.524 132.724C373.903 129.093 371.214 126.431 368.583 123.961C361.206 117.035 355.177 112.288 348.963 109.095C338.511 103.724 327.43 102.973 317.421 109.485C308.788 115.103 303.797 124.387 300.71 137.23C296.772 153.619 297.959 175.521 303.194 204.251C307.24 226.453 313.474 251.616 322.885 285.535C324.451 291.18 326.081 297.067 328.03 303.949C340.55 348.166 344.282 361.677 346.869 371.857C342.492 363.492 335.698 350.515 335.8 350.711C333.835 346.925 332.334 344.047 330.868 341.238C326.788 333.419 323.369 326.963 320.082 320.873C310.018 302.226 301.641 287.969 293.792 276.63C283.253 261.404 273.876 251.544 263.386 246.827C243.428 237.853 225.91 246.946 221.449 266.979C219.457 275.925 219.59 282.735 221.023 304.694C221.378 310.128 221.583 313.265 221.733 316.615C222.262 328.425 221.905 336.8 220.491 342.799C219.875 345.415 219.11 347.249 218.362 348.334C218.008 348.848 217.809 348.975 217.475 349.114C212.579 351.171 202.225 348.488 186.395 339.677C181.676 337.05 176.747 334.089 170.146 329.92C168.166 328.67 161.098 324.182 161.418 324.385C157.884 322.141 155.271 320.477 152.725 318.921C145.942 314.777 140.449 311.75 135.305 309.413C128.213 306.191 121.823 304.316 115.401 304.126C105.86 303.845 97.0665 307.482 90.9907 315.16C85.2541 322.41 83.4941 331.18 84.8882 340.28C85.8494 346.554 88.2595 352.867 91.9486 359.865C94.7211 365.123 98.1613 370.727 102.841 377.675C105.539 381.681 116.015 396.741 115.223 395.593C121.412 404.567 125.659 411.079 129.238 417.341C137.152 431.191 140.186 441.339 138.924 447.818C138.861 447.852 138.869 447.847 138.782 447.889C138.217 448.166 137.432 448.441 136.44 448.705C131.567 450.001 124.201 450.301 112.598 449.734C110.605 449.637 108.772 449.539 105.466 449.344C94.325 448.688 90.145 448.484 84.6044 448.599C75.7093 448.783 68.655 449.932 62.3232 452.963C52.1247 457.846 45.7694 467.271 45.6833 479.005C45.6197 487.667 48.8669 496.641 55.0499 507.14C63.1281 520.858 73.0966 531.881 85.4204 541.272C95.3669 548.851 106.109 554.963 121.681 562.488C125.445 564.308 144.361 573.194 149.851 575.864C161.075 581.322 170.573 586.338 179.973 591.972C203.793 606.247 225.746 623.763 248.059 647.391C261.429 661.549 263.932 672.313 259.448 683.58C255.181 694.3 244.848 705.731 227.516 719.84C223.133 723.408 205.244 737.248 201.19 740.596C189.889 749.928 183.66 756.652 180.719 765.573C178.024 773.747 179.193 782.439 184.515 789.558C188.565 794.975 194.22 798.615 201.439 801.337C212.103 805.358 228.11 807.931 251.465 809.674C252.418 809.746 253.35 809.78 254.303 809.71C280.875 807.742 304.359 802.825 326.859 795.092C342.981 789.551 356.783 783.284 376.814 773.201C383.725 767.538 387.833 763.892 390.97 760.571C392.469 758.984 393.601 757.593 394.412 756.42C394.884 755.736 395.093 755.295 395.263 754.93C395.075 754.135 394.67 753.046 393.915 751.559C392.78 749.322 391.113 746.681 388.806 743.682C386.101 740.166 382.198 738.011 372.344 735.38C372.331 735.377 372.321 735.384 372.308 735.38C371.759 735.254 371.005 735.087 370.747 735.025C369.88 734.82 369.062 734.569 368.228 734.351C366.124 735.418 363.738 736.628 363.261 736.87C342.121 747.616 329.498 753.36 314.299 758.584C295.266 765.125 275.423 769.257 252.742 771.037C242.919 770.268 234.705 769.375 228.368 768.341C233.789 764.012 247.46 753.356 251.891 749.749C273.958 731.787 287.97 716.304 295.317 697.843C305.579 672.061 299.472 645.539 276.159 620.852C251.373 594.606 226.602 574.928 199.807 558.869C189.339 552.596 178.902 547.08 166.74 541.165C160.93 538.34 141.934 529.432 138.462 527.754C111.329 514.639 98.5174 504.855 88.3297 487.556C88.2714 487.456 88.2805 487.405 88.2233 487.307C91.712 487.304 94.8116 487.379 103.231 487.875C106.659 488.077 108.559 488.16 110.717 488.265C126.086 489.016 136.553 488.642 146.374 486.03C162.146 481.835 173.483 471.71 176.745 455.588C180.356 437.737 174.94 419.523 162.766 398.218C158.533 390.811 153.768 383.462 147.013 373.666C147.651 374.591 137.39 359.833 134.879 356.104C133.63 354.25 133.141 353.237 132.112 351.633C135.91 353.972 139.607 356.294 149.532 362.561C156.684 367.077 162.166 370.379 167.627 373.418C178.541 379.493 188.166 383.737 197.5 386.155C209.952 389.38 221.677 389.26 232.448 384.736C246.279 378.926 254.42 367.092 258.064 351.633C260.487 341.351 260.975 329.964 260.299 314.877C260.134 311.192 259.925 307.856 259.554 302.175C259.328 298.715 259.308 297.32 259.164 294.689C260.123 295.986 261.058 297.16 262.073 298.627C268.946 308.556 276.683 321.715 286.128 339.215C289.318 345.125 292.663 351.447 296.666 359.12C298.116 361.899 313.152 390.819 315.896 395.983C323.034 409.42 328.665 419.431 333.777 427.56C340.484 438.225 346.182 445.569 352.227 450.267C365.175 460.331 382.38 458.426 390.616 442.638C397.429 429.575 395.76 411.006 388.451 379.236C383.935 359.602 384.219 360.696 365.177 293.447C363.245 286.626 361.613 280.782 360.068 275.21C341.656 208.849 334.177 168.564 337.928 148.406C339.266 149.548 340.525 150.57 342.151 152.096C344.41 154.218 346.858 156.617 350.204 159.973C350.162 159.93 357.128 166.942 359.216 169.02C377.208 186.922 389.551 196.795 404.098 202.264C416.725 207.012 429.505 207.169 441.529 201.661C455.506 195.259 465.895 183.911 473.815 168.488C479.544 157.333 483.709 144.9 488.184 127.58C488.874 124.913 492.07 111.946 492.513 110.159C496.31 94.851 498.82 86.6968 501.738 80.9598C502.409 79.6387 502.808 79.2895 503.334 78.5471C503.676 79.0369 503.988 79.4289 504.363 80.0728C507.339 85.185 510.137 92.9009 514.191 106.789C514.587 108.144 518.937 123.204 519.832 126.161C524.931 143.005 529.657 155.243 535.94 166.146C544.546 181.082 555.517 191.953 569.823 197.9C581.443 202.731 593.674 202.647 605.87 198.468C621.273 193.191 634.511 183.077 653.448 164.869C654.894 163.479 661.824 156.748 662.85 155.751C666.382 152.316 668.854 149.936 671.188 147.803C672.927 146.214 674.274 145.116 675.694 143.936C677.261 154.172 675.839 170.689 671.082 193.075C666.649 213.93 659.936 237.95 649.581 271.52C648.096 276.335 646.528 281.384 644.685 287.273C625.311 349.167 624.104 353.196 618.962 373.276C610.928 404.647 608.613 424.162 614.279 438.026C620.57 453.421 636.103 459.355 650.645 451.828C657.857 448.094 664.444 441.479 672.11 431.533C682.111 418.559 688.539 408.371 712.805 368.415C714.203 366.114 715.383 364.159 716.531 362.277C728.896 342.001 737.175 329.093 744.773 318.602C747.42 314.946 749.496 312.566 751.691 309.909C751.694 312.794 751.759 314.779 751.691 318.815C751.627 322.555 751.603 324.406 751.585 326.62C751.482 338.811 751.895 347.493 753.359 355.643C755.603 368.124 760.233 378.059 768.97 384.949C775.353 389.982 782.995 392.293 791.215 392.293C797.336 392.293 803.63 391.051 810.516 388.78C819.827 385.71 826.462 382.555 845.109 372.992C846.604 372.225 847.716 371.663 848.799 371.112C862.461 364.153 870.61 360.565 877.395 358.836C880.494 358.046 882.77 357.822 884.172 357.984C884.282 359.279 884.004 361.436 883.072 364.548C881.015 371.415 878.636 376.316 868.241 396.125C864.517 403.222 862.067 408.05 859.726 413.048C849.503 434.878 845.348 452.178 849.189 469.39C852.434 483.935 862.285 493.694 875.941 497.88C884.769 500.586 894.159 500.933 906.524 499.973C908.875 499.791 911.375 499.548 914.507 499.228C904.668 512.491 890.304 526.315 869.057 543.152C862.106 548.661 854.662 554.351 844.577 561.885C843.954 562.351 824.229 576.999 818.428 581.363C774.839 614.156 748.57 637.655 727.6 665.876C713.223 685.226 709.262 705.636 714.721 725.907C718.703 740.693 726.704 753.409 739.451 768.483C741.121 770.458 746.223 776.299 750.024 780.688C747.759 780.998 746.009 781.365 743.211 781.61C716.171 783.981 694.74 777.559 664.482 760.11C663.133 761.891 661.588 763.615 659.799 765.431C658.512 766.738 657.437 767.684 656.287 768.589C655.347 769.328 654.562 769.888 653.697 770.47C653.38 770.682 653 770.93 652.668 771.144C651.664 780.904 650.907 785.875 648.836 792.502C648.527 793.49 648.321 794.316 648.055 795.234C661.316 802.778 672.706 808.191 684.812 812.371C704.756 819.257 724.926 821.972 746.618 820.07C761.357 818.778 771.822 816.537 779.543 812.619C791.493 806.556 797.963 795.358 795.473 782.391C794.023 774.844 790.23 768.642 783.658 760.606C781.023 757.384 770.757 745.732 768.934 743.576C749.34 720.406 745.573 706.413 758.61 688.867C776.785 664.406 800.841 642.908 841.667 612.195C847.369 607.906 866.976 593.309 867.674 592.788C878.028 585.053 885.75 579.194 893.042 573.416C919.365 552.557 937.216 535.163 949.703 516.613C955.978 507.289 959.803 499.63 961.304 492.523C963.696 481.204 960.014 470.319 950.093 464.139C943.928 460.299 937.381 459.259 929.018 459.385C924.488 459.453 921.668 459.677 911.846 460.698C908.116 461.085 905.862 461.298 903.544 461.478C895.63 462.092 890.325 461.886 887.259 460.946C887.071 460.888 887.007 460.857 886.868 460.804C885.451 454.066 887.87 444.005 894.709 429.405C896.745 425.058 898.933 420.699 902.408 414.077C914.314 391.391 916.945 385.993 920.042 375.653C925.387 357.802 923.481 341.881 910.852 329.849C899.414 318.95 884.578 317.177 867.851 321.44C857.429 324.097 847.414 328.475 831.272 336.696C830.152 337.267 829.035 337.866 827.511 338.648C810.939 347.147 805.067 349.914 798.453 352.095C795.801 352.969 794.125 353.215 792.635 353.372C792.179 352.187 791.719 350.846 791.357 348.83C790.423 343.632 790.102 336.904 790.186 326.94C790.204 324.871 790.231 323.121 790.293 319.489C790.639 299.178 790.363 291.829 787.774 283.016C782.156 263.892 764.77 255.757 745.411 264.637C735.044 269.393 725.387 279.573 713.515 295.966C705.151 307.515 696.439 321.059 683.57 342.16C682.409 344.064 681.218 346.085 679.81 348.405C668.031 367.798 660.616 379.868 655.009 388.603C655.485 386.626 655.815 384.976 656.358 382.855C661.244 363.772 662.501 359.654 681.548 298.804C683.406 292.868 684.977 287.781 686.48 282.909C697.15 248.318 704.101 223.35 708.832 201.094C715 172.07 716.789 149.97 713.125 133.257C710.275 120.255 705.465 110.798 696.804 105.05C686.803 98.4131 675.65 99.1747 665.085 104.518C658.835 107.68 652.725 112.35 645.146 119.278C642.457 121.735 639.715 124.388 635.921 128.077C634.868 129.101 628.067 135.735 626.697 137.053C611.716 151.457 601.731 159.099 593.381 161.96C589.635 163.243 587.015 163.261 584.653 162.279C573.599 157.683 565.435 143.503 556.802 114.985C555.965 112.222 552.637 100.799 552.615 100.722C552.064 98.8052 551.643 97.3778 551.232 95.9676C546.314 79.1222 542.811 69.3257 537.749 60.63C529.549 46.5433 517.82 38.0189 502.234 38.4552Z" fill="#ffffff" fill-rule="nonzero" opacity="1" stroke="none"/>
<path d="M338.183 768.135C372.157 761.933 398.832 737.236 437.102 735.082C585.49 726.73 408.626 867.494 529.014 942.869" fill="none" opacity="1" stroke="#ffffff" stroke-linecap="round" stroke-linejoin="round" stroke-width="38.6018"/>
<path d="M674.974 785.649C651.092 795.503 598.925 711.603 600.272 693.009" fill="none" opacity="1" stroke="#ffffff" stroke-linecap="round" stroke-linejoin="round" stroke-width="38.6018"/>
</g>
<g id="Layer-2-copy"/>
<g id="Layer-2"/>
<g id="Layer-2-copy_2" visibility="hidden">
<path d="M88.8155 388.46C71.6103 410.163 150.5 472.53 141.647 516.084C132.795 559.638 17.6843 501.894 53.4045 562.677C89.1246 623.46 158.616 607.807 248.265 702.912C337.914 798.018 73.5755 850.504 238.668 862.978C357 854.321 381.046 787.189 494.831 787.812C608.616 788.435 646.987 882.342 742.475 874.057C837.963 865.773 687.56 819.06 740.725 747.646C793.889 676.232 896.863 630.282 936.048 572.179C975.232 514.076 878.049 571.988 868.832 530.503C859.616 489.018 925.032 430.913 899.181 406.238C873.33 381.562 803.609 451.61 779.742 432.755C755.876 413.9 786.205 327.173 751.693 342.968C717.18 358.762 642.489 532.054 627.377 494.98C612.264 457.905 705.25 258.844 691.243 194.669C677.237 130.495 620.358 258.707 571.351 238.281C522.345 217.855 532.018 111.968 495.217 112.965C458.416 113.962 471.089 220.82 424.148 242.27C377.208 263.72 322.868 134.885 307.455 198.766C292.042 262.648 378.912 466.395 362.498 497.796C346.083 529.196 279.804 341.499 241.796 324.368C203.789 307.237 248.714 413.247 210.468 429.27C172.223 445.293 106.021 366.757 88.8155 388.46Z" fill="none" opacity="1" stroke="#ffffff" stroke-linecap="round" stroke-linejoin="round" stroke-width="32.3838"/>
</g>
<g id="Layer-4"/>
</svg>
