<?xml version="1.0" encoding="UTF-8" standalone="no"?>
<!DOCTYPE svg PUBLIC "-//W3C//DTD SVG 1.1//EN" "http://www.w3.org/Graphics/SVG/1.1/DTD/svg11.dtd">
<!-- Created with Vectornator (http://vectornator.io/) -->
<svg height="100%" stroke-miterlimit="10" style="fill-rule:nonzero;clip-rule:evenodd;stroke-linecap:round;stroke-linejoin:round;" version="1.1" viewBox="0 0 983.206 895.11" width="100%" xml:space="preserve" xmlns="http://www.w3.org/2000/svg" xmlns:xlink="http://www.w3.org/1999/xlink">
<defs/>
<g id="Layer-2-copy"/>
<g id="Layer-9">
<path d="M493.719 20.75C456.918 21.7472 469.597 128.612 422.656 150.062C375.716 171.513 321.381 42.6811 305.969 106.562C290.556 170.444 377.415 374.193 361 405.594C344.585 436.994 281.898 255.968 240.312 232.156C198.727 208.345 232.901 292.889 194.656 310.344C156.411 327.798 106.188 277.164 87.3125 301.969C68.4373 326.774 128.009 367.44 119.156 409.562C110.303 451.685 51.9062 470.469 51.9062 470.469C51.9062 470.469 149.898 538.64 222.281 603.688C241.199 591.729 254.418 574.032 264.625 549.688C267.278 543.359 269.717 536.725 272.469 528.5C273.547 525.276 278.033 511.45 279.219 507.938C283.474 495.336 286.943 487.142 291.375 480.281C297.526 470.76 305.358 464.659 315.5 462.781C317.821 462.352 320.105 462.142 322.312 462.188C328.934 462.324 334.975 464.58 340 468.875C345.534 473.606 349.36 480.329 352 488.781C352.566 490.594 352.975 492.68 353.438 494.656C354.071 493.168 354.631 491.55 355.312 490.156C363.56 473.284 375.707 463.26 391.969 463.531C407.841 463.796 419.028 474.196 426.062 491.156C429.569 499.609 432.075 509.815 433.969 521.812C437.746 508.364 442.005 496.953 446.875 487.812C450.918 480.226 455.377 474.174 460.562 469.812C467.084 464.327 474.69 461.618 482.844 462.406C499.164 463.985 508.712 475.621 513.031 493.688C515.795 505.249 516.499 516.739 516.75 540.719C516.756 541.249 516.771 541.669 516.781 542.625C516.996 563.633 517.405 572.43 518.969 581.062C520.546 589.772 522.781 593.699 524.875 594.438C529.103 595.929 530.262 595.581 532.312 592.938C535.383 588.98 538.173 581.832 541.969 568.531C542.696 565.984 545.32 556.525 545.812 554.781C547.442 549.006 548.812 544.387 550.281 539.875C557.769 516.887 566.74 500.2 580.531 487.656C597.968 471.797 621.387 464.951 651.469 468.156C666.895 469.8 665.917 492.567 650.406 492.875C621.569 493.447 599.299 505.209 588.281 522.938C578.514 538.653 579.465 556.306 591.031 568.969C608.378 587.961 625.053 593.117 646.062 588.312C655.565 586.139 666.04 581.942 679.062 575.312C684.453 572.568 690.167 569.469 697.594 565.312C700.092 563.914 713.46 556.371 717.375 554.188C738.249 542.544 753.551 534.929 769.875 528.688C790.758 520.703 810.951 516.143 831.562 515.344C851.237 514.581 870.995 517.359 891 523.844C909.45 508.962 924.857 494.361 934.562 479.969C973.747 421.866 876.56 483.138 867.344 438.312C858.127 393.487 917.813 332.52 897.688 300.688C877.562 268.855 823.716 323.446 786.844 310.969C749.972 298.491 790.426 227.798 750.188 250.75C709.949 273.702 640.987 439.856 625.875 402.781C610.763 365.707 703.756 166.644 689.75 102.469C675.744 38.294 618.882 166.489 569.875 146.062C520.868 125.636 530.52 19.7528 493.719 20.75ZM322.406 487C321.809 486.905 321.046 486.963 320 487.156C314.346 488.203 309.504 495.687 302.688 515.875C301.563 519.207 297.101 532.96 295.969 536.344C293.039 545.102 290.424 552.276 287.5 559.25C279.499 578.332 269.948 593.96 257.219 607.094C252.259 612.211 246.823 616.802 241 620.969C258.096 637.325 272.814 653.082 283.031 667C336.743 740.167 214.174 755.976 266.75 763.125C319.326 770.274 379.559 694.971 493.344 695.594C607.128 696.216 667.59 771.849 721.906 765.625C776.222 759.401 657.429 742.133 710.594 670.719C745.017 624.48 812.25 582.519 866.062 542.906C854.755 540.642 843.582 539.695 832.5 540.125C814.781 540.812 797.215 544.772 778.719 551.844C763.735 557.573 749.393 564.699 729.469 575.812C725.627 577.955 712.249 585.504 709.688 586.938C702.002 591.239 696.043 594.489 690.312 597.406C675.632 604.88 663.403 609.768 651.594 612.469C621.904 619.259 596.134 611.29 572.75 585.688C569.973 582.647 567.642 579.39 565.594 576.031C561.036 591.898 557.462 600.924 551.875 608.125C543.272 619.213 530.911 622.851 516.625 617.812C504.062 613.382 497.561 602.056 494.562 585.5C492.652 574.951 492.231 565.455 492 542.906C491.99 541.951 491.974 541.496 491.969 540.969C491.738 518.967 491.107 508.512 488.938 499.438C486.813 490.55 484.229 487.429 480.438 487.062C477.755 486.803 473.613 490.284 468.719 499.469C463.446 509.364 458.686 523.693 454.5 541.406C451.357 554.707 448.848 568.484 446.344 584.594C445.845 587.805 444.379 597.453 444.125 599.062C443.802 601.112 443.573 602.551 443.344 603.656C443.159 604.548 442.975 605.288 442.719 606.062C442.401 607.023 442.027 607.887 441.375 608.938C440.571 610.234 439.553 611.42 438 612.531C434.912 614.741 430.795 615.612 426.688 614.188C423.561 613.103 421.264 611.117 419.594 608.688C418.601 607.244 417.891 605.736 417.312 604.062C416.543 601.834 416.009 599.247 415.562 596.094C414.915 591.513 414.491 586.031 413.938 576.438C413.838 574.722 413.08 561.771 412.906 559.062C412.462 552.132 411.983 546.174 411.406 540.5C407.927 506.27 400.551 488.463 391.531 488.312C381.098 488.139 372.121 506.527 366.812 541.438C365.649 549.089 364.699 557.12 363.75 566.75C363.386 570.44 362.031 585.238 361.688 588.594C361.105 594.281 360.576 598.211 359.938 601.281C359.477 603.499 358.959 605.348 358.188 607.062C357.525 608.534 356.701 609.898 355.531 611.188C353.482 613.446 350.706 615.082 347.25 615.5C342.202 616.11 337.626 613.95 334.719 610.25C333.099 608.189 332.18 605.988 331.562 603.5C330.847 600.618 330.549 597.195 330.469 592.75C330.361 586.782 330.471 583.881 331.375 564.719C331.903 553.535 332.165 546.275 332.25 538.75C332.465 519.787 331.284 505.601 328.344 496.188C326.976 491.809 325.36 488.988 323.875 487.719C323.436 487.343 323.004 487.095 322.406 487Z" fill="#f94646" fill-rule="nonzero" opacity="1" stroke="none"/>
</g>
</svg>
